<svg width="24" height="24" viewBox="0 0 24 24" fill="none" xmlns="http://www.w3.org/2000/svg">
<path d="M10.3075 7.21992C10.9496 5.61924 11.2706 4.81889 11.7922 4.70797C11.9293 4.6788 12.0711 4.6788 12.2082 4.70797C12.7298 4.81889 13.0508 5.61924 13.6929 7.21992C14.058 8.1302 14.2406 8.58535 14.5822 8.89491C14.678 8.98174 14.782 9.05907 14.8928 9.12582C15.2876 9.3638 15.7805 9.40794 16.7663 9.49623C18.4351 9.64568 19.2695 9.7204 19.5243 10.1961C19.577 10.2947 19.6129 10.4014 19.6304 10.5118C19.7149 11.0448 19.1015 11.6028 17.8747 12.719L17.534 13.0289C16.9605 13.5507 16.6737 13.8116 16.5078 14.1372C16.4083 14.3325 16.3416 14.5429 16.3104 14.7598C16.2582 15.1215 16.3422 15.5 16.5102 16.257L16.5702 16.5275C16.8714 17.885 17.022 18.5638 16.834 18.8974C16.6651 19.1971 16.3541 19.389 16.0105 19.4054C15.6279 19.4236 15.089 18.9844 14.011 18.106C13.3008 17.5273 12.9457 17.238 12.5515 17.1249C12.1912 17.0216 11.8092 17.0216 11.4489 17.1249C11.0547 17.238 10.6996 17.5273 9.98941 18.106C8.91144 18.9844 8.37245 19.4236 7.98993 19.4054C7.64633 19.389 7.33528 19.1971 7.16642 18.8974C6.97842 18.5638 7.12902 17.885 7.43022 16.5275L7.49023 16.257C7.65818 15.5 7.74216 15.1215 7.69004 14.7598C7.65878 14.5429 7.59207 14.3325 7.49257 14.1372C7.32669 13.8116 7.03992 13.5507 6.46637 13.0289L6.1257 12.719C4.89891 11.6028 4.28552 11.0448 4.36999 10.5118C4.38749 10.4014 4.42337 10.2947 4.47614 10.1961C4.73094 9.7204 5.56532 9.64568 7.23408 9.49623C8.21986 9.40794 8.71276 9.3638 9.1076 9.12582C9.21834 9.05907 9.32236 8.98174 9.41818 8.89491C9.75979 8.58535 9.94236 8.1302 10.3075 7.21992Z" fill="#FEA82F" stroke="#FEA82F" stroke-width="2"/>
</svg>
